<svg width="76" height="76" viewBox="0 0 76 76" fill="none" xmlns="http://www.w3.org/2000/svg">
<g clip-path="url(#clip0_473_7350)">
<path d="M39.2041 68.066C38.4837 68.5251 37.5513 68.4759 36.8832 67.9437L36.3 67.4792C28.65 62.0625 4 42.5625 4 25.7708C4 16.2917 12.2167 8.70834 22.4167 8.70834C28.65 8.70834 34.6 11.6875 38 16.5625C41.4 11.6875 47.35 8.70834 53.5833 8.70834C63.7833 8.70834 72 16.2917 72 25.7708C72 42.8333 47.35 62.0625 39.7 67.75L39.2041 68.066ZM22.4167 13.8542C15.3333 13.8542 9.66667 19 9.66667 25.5C9.66667 36.2829 23.2926 50.3858 36.7939 60.8648C37.5041 61.4161 38.4958 61.4161 39.2061 60.8648C52.7074 50.3858 66.3333 36.2829 66.3333 25.5C66.3333 19 60.6667 13.8542 53.5833 13.8542C49.05 13.8542 45.0833 16.0208 42.8167 19.2708L39.6389 24.0952C38.8568 25.2825 37.1206 25.2977 36.3179 24.1242L33.1833 19.5417C30.9167 16.0208 26.95 13.8542 22.4167 13.8542Z" fill="black"/>
</g>
<defs>
<clipPath id="clip0_473_7350">
<rect width="68" height="65" fill="white" transform="translate(4 6)"/>
</clipPath>
</defs>
</svg>
