<svg width="90" height="90" viewBox="0 0 90 90" fill="none" xmlns="http://www.w3.org/2000/svg">
<g clip-path="url(#clip0_473_7389)">
<path opacity="0.92" fill-rule="evenodd" clip-rule="evenodd" d="M47.0645 13.3332C45.9071 12.2354 44.0929 12.2354 42.9355 13.3332L12.9355 41.7877C12.3382 42.3542 12 43.1412 12 43.9644V74.625C12 76.2819 13.3431 77.625 15 77.625H34.3897C35.0949 77.625 35.6666 77.0533 35.6666 76.3481V58.8028C35.6666 55.7193 37.1895 52.8348 39.7358 51.0956C42.9103 48.9273 47.0897 48.9273 50.2642 51.0956C52.8105 52.8348 54.3334 55.7193 54.3334 58.8028V76.3481C54.3334 77.0533 54.9051 77.625 55.6103 77.625H75C76.6569 77.625 78 76.2819 78 74.625V43.9644C78 43.1412 77.6618 42.3542 77.0645 41.7877L47.0645 13.3332Z" fill="black"/>
</g>
<defs>
<clipPath id="clip0_473_7389">
<rect width="90" height="90" fill="white"/>
</clipPath>
</defs>
</svg>
