<svg width="90" height="90" viewBox="0 0 90 90" fill="none" xmlns="http://www.w3.org/2000/svg">
<path fill-rule="evenodd" clip-rule="evenodd" d="M25 13C17.8203 13 12 18.8203 12 26V65C12 72.1797 17.8203 78 25 78H64C71.1797 78 77 72.1797 77 65V26C77 18.8203 71.1797 13 64 13H25ZM28.75 48.125H41.875V61.25C41.875 61.9938 42.1266 62.6172 42.6297 63.1203C43.1328 63.6235 43.7562 63.875 44.5 63.875C45.2437 63.875 45.8672 63.6235 46.3703 63.1203C46.8734 62.6172 47.125 61.9938 47.125 61.25V48.125H60.25C60.9937 48.125 61.6172 47.8735 62.1203 47.3703C62.6234 46.8672 62.875 46.2438 62.875 45.5C62.875 44.7563 62.6234 44.1328 62.1203 43.6297C61.6172 43.1266 60.9937 42.875 60.25 42.875H47.125V29.75C47.125 29.0063 46.8734 28.3828 46.3703 27.8797C45.8672 27.3766 45.2437 27.125 44.5 27.125C43.7562 27.125 43.1328 27.3766 42.6297 27.8797C42.1266 28.3828 41.875 29.0063 41.875 29.75V42.875H28.75C28.0062 42.875 27.3828 43.1266 26.8797 43.6297C26.3766 44.1328 26.125 44.7563 26.125 45.5C26.125 46.2438 26.3766 46.8672 26.8797 47.3703C27.3828 47.8735 28.0062 48.125 28.75 48.125Z" fill="black"/>
</svg>
