<svg width="76" height="76" viewBox="0 0 76 76" fill="none" xmlns="http://www.w3.org/2000/svg">
<mask id="path-1-inside-1_473_7382" fill="white">
<path fill-rule="evenodd" clip-rule="evenodd" d="M65 11C65 9.34315 63.6569 8 62 8H15C13.3431 8 12 9.34315 12 11V65C12 66.6569 13.3431 68 15 68H15.2331C16.0287 68 16.7918 67.6839 17.3544 67.1213L36.3544 48.1213C37.526 46.9497 39.4255 46.9497 40.597 48.1213L59.597 67.1213C60.1596 67.6839 60.9227 68 61.7183 68H62C63.6569 68 65 66.6569 65 65V11Z"/>
</mask>
<path d="M59.597 67.1213L55.3544 71.364L59.597 67.1213ZM36.3544 48.1213L40.597 52.364L36.3544 48.1213ZM17.3544 67.1213L13.1117 62.8787L17.3544 67.1213ZM15 14H62V2H15V14ZM18 65V11H6V65H18ZM15.2331 62H15V74H15.2331V62ZM21.597 71.364L40.597 52.364L32.1117 43.8787L13.1117 62.8787L21.597 71.364ZM36.3544 52.364L55.3544 71.364L63.8397 62.8787L44.8397 43.8787L36.3544 52.364ZM62 62H61.7183V74H62V62ZM59 11V65H71V11H59ZM62 74C66.9706 74 71 69.9706 71 65H59C59 63.3431 60.3431 62 62 62V74ZM55.3544 71.364C57.0422 73.0518 59.3314 74 61.7183 74V62C62.514 62 63.2771 62.3161 63.8397 62.8787L55.3544 71.364ZM40.597 52.364C39.4255 53.5355 37.526 53.5355 36.3544 52.364L44.8397 43.8787C41.3249 40.364 35.6265 40.364 32.1117 43.8787L40.597 52.364ZM15.2331 74C17.62 74 19.9092 73.0518 21.597 71.364L13.1117 62.8787C13.6744 62.3161 14.4374 62 15.2331 62V74ZM6 65C6 69.9706 10.0294 74 15 74V62C16.6569 62 18 63.3431 18 65H6ZM62 14C60.3431 14 59 12.6569 59 11H71C71 6.02944 66.9706 2 62 2V14ZM15 2C10.0294 2 6 6.02944 6 11H18C18 12.6569 16.6569 14 15 14V2Z" fill="black" mask="url(#path-1-inside-1_473_7382)"/>
</svg>
