<svg width="76" height="76" viewBox="0 0 76 76" fill="none" xmlns="http://www.w3.org/2000/svg">
<path d="M38 7.16667C33.2801 7.1636 28.6225 8.24414 24.3861 10.325C20.1497 12.4059 16.4476 15.4316 13.565 19.169C10.6824 22.9064 8.69629 27.2556 7.75971 31.8817C6.82313 36.5077 6.96108 41.287 8.16293 45.8513C9.36479 50.4156 11.5985 54.643 14.6918 58.2079C17.7852 61.7728 21.6557 64.5799 26.0051 66.413C30.3544 68.2461 35.0666 69.0561 39.7784 68.7808C44.4903 68.5055 49.076 67.1522 53.1823 64.825L64.7756 68.6884C65.0907 68.7879 65.4196 68.8368 65.75 68.8333C66.2383 68.833 66.7195 68.7166 67.1541 68.4939C67.5886 68.2712 67.964 67.9484 68.2494 67.5522C68.5348 67.156 68.7221 66.6977 68.7957 66.215C68.8694 65.7323 68.8273 65.239 68.673 64.7757L64.825 53.1823C67.4901 48.4941 68.8774 43.1881 68.848 37.7954C68.8187 32.4026 67.3737 27.1121 64.6578 22.4531C61.9418 17.7941 58.05 13.93 53.3718 11.2473C48.6935 8.56469 43.3928 7.15754 38 7.16667ZM58.5134 53.7898L60.8752 60.8814L53.7836 58.5196C53.3509 58.372 52.8907 58.3232 52.4367 58.3765C51.9827 58.4299 51.5463 58.5841 51.1597 58.8279C46.0171 62.0825 39.8551 63.3263 33.8527 62.3215C27.8504 61.3167 22.4294 58.1337 18.6272 53.3817C14.8251 48.6298 12.9088 42.6426 13.2451 36.566C13.5814 30.4895 16.1467 24.7503 20.4501 20.447C24.7534 16.1436 30.4925 13.5783 36.5691 13.242C42.6457 12.9057 48.6328 14.822 53.3848 18.6242C58.1367 22.4263 61.3197 27.8473 62.3246 33.8497C63.3294 39.852 62.0855 46.0141 58.831 51.1566C58.5855 51.5442 58.4295 51.9817 58.3746 52.4373C58.3197 52.8928 58.3671 53.3549 58.5134 53.7898Z" fill="black"/>
</svg>
