<svg width="90" height="90" viewBox="0 0 90 90" fill="none" xmlns="http://www.w3.org/2000/svg">
<path fill-rule="evenodd" clip-rule="evenodd" d="M12 33V59C12 69.4934 20.5066 78 31 78H59C69.4934 78 78 69.4934 78 59V33H12ZM77.5782 27C75.7413 18.4273 68.1212 12 59 12H51.7368L60.4211 27H77.5782ZM44.7368 12H32.7368L41.4211 27H53.4211L44.7368 12ZM26.1053 12.6364C19.2502 14.4589 13.9179 20.0179 12.4218 27H34.4211L26.1053 12.6364ZM55.8548 49.735C57.2673 50.4878 57.2673 52.5122 55.8548 53.265L40.1698 61.6242C38.8376 62.3341 37.2292 61.3687 37.2292 59.8592L37.2292 43.1408C37.2292 41.6313 38.8376 40.6659 40.1698 41.3758L55.8548 49.735Z" fill="black"/>
</svg>
